<?xml version="1.0" standalone="no"?>
<!DOCTYPE svg PUBLIC "-//W3C//DTD SVG 1.1//EN" "http://www.w3.org/Graphics/SVG/1.1/DTD/svg11.dtd" >
<svg xmlns="http://www.w3.org/2000/svg">
<metadata>Generated by IcoMoon</metadata>
<defs>
<font id="icomoon" horiz-adv-x="1024">
<font-face units-per-em="1024" ascent="960" descent="-64" />
<missing-glyph horiz-adv-x="1024" />
<glyph unicode="&#x20;" horiz-adv-x="512" d="" />
<glyph unicode="&#xe600;" glyph-name="mhplus-pfeil-big" d="M147.2 371.2l148.8-73.6 174.4 124.8h81.6l176-124.8 129.6 81.6-304 209.6h-83.2z" />
<glyph unicode="&#xe601;" glyph-name="mhplus-pfeil-smart" horiz-adv-x="361" d="M4.385 951.229l354.124-424.291v-169.936l-353.028-431.966 9.867 202.827 279.572 311.366-287.246 325.619z" />
<glyph unicode="&#xe602;" glyph-name="mhplus-mhplusdirekt-small" horiz-adv-x="1340" d="M0 311.467v273.067h464.546v135.701l272.789-272.234-272.789-272.234v135.701h-464.546zM827.248 960c-117.663 0-226.168-39.683-312.473-106.285l92.965-92.687c63.827 44.956 139.863 69.099 219.508 69.099 102.122 0 198.14-39.683 270.292-111.835s111.835-168.169 111.835-270.014-39.683-197.862-111.835-270.014c-72.152-72.152-168.169-111.835-270.292-111.835-79.644 0-155.681 24.143-219.508 69.099l-92.965-92.687c86.582-66.602 194.81-106.285 312.473-106.285 283.057 0 512.278 229.221 512.278 512s-229.221 511.445-512.278 511.445z" />
<glyph unicode="&#xe603;" glyph-name="mhplus-search" d="M1016.080 39.604l-262.892 262.644c49.324 68.064 78.668 151.42 78.668 241.684 0 227.136-184.708 411.844-411.844 411.844s-411.844-184.708-411.844-411.844c0-227.136 184.708-411.844 411.844-411.844 86.072 0 166.216 26.64 232.308 72.008l264.12-264.12 99.628 99.628zM128.768 544.18c0 160.548 130.708 291.256 291.256 291.256s291.256-130.708 291.256-291.256c0-160.548-130.708-291.256-291.256-291.256s-291.256 130.708-291.256 291.256z" />
<glyph unicode="&#xe604;" glyph-name="mhplus-einstellungen" d="M632.123 448c0 66.954-53.169 120.123-120.123 120.123s-120.123-53.169-120.123-120.123 53.169-120.123 120.123-120.123 120.123 53.169 120.123 120.123zM840.862 402.708l-47.262-17.723c-17.723-5.908-33.477-19.692-41.354-39.385v0c-7.877-17.723-7.877-37.415 1.969-55.138l21.662-45.292-63.015-63.015-45.292 21.662c-17.723 7.877-37.415 9.846-55.138 1.969v0c-17.723-7.877-31.508-21.662-39.385-41.354l-17.723-47.262h-88.615l-17.723 47.262c-5.908 17.723-19.692 33.477-39.385 41.354v0c-17.723 7.877-37.415 7.877-55.138-1.969l-45.292-21.662-63.015 63.015 21.662 45.292c7.877 17.723 9.846 37.415 1.969 55.138v0c-7.877 17.723-21.662 31.508-41.354 39.385l-47.262 17.723v88.615l47.262 17.723c17.723 5.908 33.477 19.692 41.354 39.385v0c7.877 17.723 7.877 37.415-1.969 55.138l-21.662 45.292 63.015 63.015 45.292-21.662c17.723-7.877 37.415-9.846 55.138-1.969v0c17.723 7.877 31.508 21.662 39.385 41.354l17.723 47.262h88.615l17.723-47.262c5.908-17.723 19.692-33.477 39.385-41.354v0c17.723-7.877 37.415-7.877 55.138 1.969l47.262 21.662 63.015-63.015-21.662-45.292c-7.877-17.723-9.846-37.415-1.969-55.138 0 0 0 0 0 0 7.877-17.723 21.662-31.508 41.354-39.385l47.262-17.723v-88.615zM1024 448c0 283.569-228.431 512-512 512s-512-228.431-512-512 228.431-512 512-512 512 228.431 512 512z" />
<glyph unicode="&#xe605;" glyph-name="mhplus-facebook" d="M663.631 658.708h-70.892c-25.6 0-29.538-9.846-29.538-37.415v-63.015h102.4l-11.815-110.277h-92.554v-330.831h-131.938v328.862h-68.923v112.246h68.923v88.615c0 82.708 45.292 126.031 141.785 126.031h90.585v-114.215zM512 960c-283.569 0-512-228.431-512-512s228.431-512 512-512 512 228.431 512 512-228.431 512-512 512z" />
<glyph unicode="&#xe606;" glyph-name="mhplus-gesch-stelle" d="M846.769 491.323l-49.231-49.231-283.569 248.123-287.508-252.062-49.231 51.2 336.738 301.292 332.8-299.323zM257.969 406.646l256 224.492 256-222.523v-234.338h-185.108v135.877h-139.815v-135.877h-185.108v232.369zM1024 448c0 283.569-228.431 512-512 512s-512-228.431-512-512 228.431-512 512-512 512 228.431 512 512z" />
<glyph unicode="&#xe607;" glyph-name="mhplus-hotline" d="M697.108 203.815c0 0-47.262-23.631-51.2-25.6-37.415-17.723-126.031-68.923-267.815 214.646-141.785 279.631-47.262 324.923-11.815 342.646 0 0 51.2 25.6 51.2 25.6l84.677-167.385-51.2-25.6c-53.169-29.538 57.108-248.123 110.277-220.554 1.969 1.969 49.231 25.6 49.231 25.6l86.646-169.354zM1024 448c0 283.569-228.431 512-512 512s-512-228.431-512-512c0-283.569 228.431-512 512-512s512 228.431 512 512z" />
<glyph unicode="&#xe608;" glyph-name="mhplus-hotline24h" d="M703.015 587.815h57.108v104.369l-57.108-104.369zM840.862 546.462h-29.538v-61.046h-57.108v61.046h-92.554v43.323l86.646 155.569h61.046v-155.569h29.538v-43.323zM663.631 670.523c0-53.169-43.323-92.554-106.338-135.877h110.277l-3.938-51.2h-163.446v51.2c23.631 19.692 74.831 63.015 94.523 94.523 5.908 9.846 9.846 23.631 9.846 37.415 0 5.908 0 31.508-23.631 31.508-13.785 0-25.6-7.877-29.538-49.231l-51.2 9.846c5.908 37.415 21.662 84.677 84.677 84.677 63.015 1.969 78.769-43.323 78.769-72.862zM480.492 278.646c1.969 1.969 55.138 27.569 55.138 27.569l92.554-183.138c0 0-53.169-25.6-55.138-27.569-41.354-19.692-137.846-74.831-293.415 234.338-153.6 307.2-51.2 354.462-13.785 374.154 0 0 55.138 27.569 55.138 27.569l92.554-183.138-55.138-27.569c-57.108-31.508 63.015-271.754 122.092-242.215zM1024 448c0 283.569-228.431 512-512 512s-512-228.431-512-512 228.431-512 512-512 512 228.431 512 512z" />
<glyph unicode="&#xe609;" glyph-name="mhplus-mhplusdirekt" d="M807.385 448c0-175.262-141.785-317.046-317.046-317.046-72.862 0-139.815 23.631-192.985 64.985l57.108 57.108c39.385-27.569 86.646-43.323 135.877-43.323 63.015 0 122.092 23.631 167.385 68.923s68.923 104.369 68.923 167.385-23.631 122.092-68.923 167.385c-43.323 45.292-102.4 70.892-165.415 70.892-49.231 0-96.492-15.754-135.877-43.323l-57.108 57.108c53.169 41.354 120.123 64.985 192.985 64.985 173.292 1.969 315.077-139.815 315.077-315.077zM1020.062 448c0 283.569-228.431 512-512 512-254.031 0-464.738-185.108-504.123-427.323h263.877v84.677l169.354-167.385-169.354-167.385v84.677h-263.877c39.385-246.154 250.092-431.262 504.123-431.262 283.569 0 512 228.431 512 512z" />
<glyph unicode="&#xe60a;" glyph-name="mhplus-newsletter" d="M604.554 702.031h-259.938v-506.092h389.908v374.154h-131.938v131.938zM795.569 132.923h-512v630.154h358.4l153.6-153.6v-476.554zM1024 448c0 283.569-228.431 512-512 512s-512-228.431-512-512 228.431-512 512-512 512 228.431 512 512z" />
<glyph unicode="&#xe60b;" glyph-name="mhplus-twitter" d="M769.969 536.615c7.877-167.385-116.185-352.492-336.738-352.492-66.954 0-129.969 19.692-181.169 53.169 63.015-7.877 126.031 9.846 175.262 49.231-51.2 0-96.492 35.446-110.277 82.708 17.723-3.938 37.415-1.969 53.169 1.969-57.108 11.815-96.492 63.015-94.523 118.154 15.754-9.846 33.477-13.785 53.169-15.754-53.169 35.446-66.954 104.369-37.415 159.508 59.077-70.892 145.723-118.154 244.185-124.062-17.723 74.831 39.385 145.723 116.185 145.723 33.477 0 64.985-13.785 86.646-37.415 27.569 5.908 53.169 15.754 74.831 29.538-9.846-27.569-27.569-51.2-53.169-64.985 23.631 1.969 47.262 9.846 68.923 17.723-15.754-25.6-35.446-47.262-59.077-63.015zM512 960c-283.569 0-512-228.431-512-512s228.431-512 512-512 512 228.431 512 512-228.431 512-512 512z" />
<glyph unicode="&#xe60c;" glyph-name="mhplus-videochat" d="M486.4 302.277c1.969-11.815 13.785-19.692 25.6-17.723l47.262 9.846-7.877 45.292-47.262-9.846c-11.815-3.938-19.692-15.754-17.723-27.569zM1024 448c0 283.569-228.431 512-512 512s-512-228.431-512-512c0-163.446 76.8-307.2 194.954-401.723 9.846 53.169-3.938 116.185 61.046 124.062 90.585 21.662 198.892 25.6 155.569 106.338-128 236.308-37.415 370.215 100.431 370.215 112.246 0 196.923-90.585 147.692-259.938-23.631-23.631-57.108-41.354-88.615-49.231l5.908-29.538c13.785 3.938 41.354 13.785 63.015 27.569-7.877-19.692-17.723-39.385-27.569-59.077-41.354-78.769 70.892-88.615 165.415-110.277 33.477-5.908 41.354-64.985 51.2-118.154 118.154 92.554 194.954 236.308 194.954 399.754z" />
<glyph unicode="&#xe60d;" glyph-name="mhplus-w-adresse" d="M356.431 469.662l159.508 159.508 159.508-159.508h-41.354v-124.062h-86.646v64.985h-64.985v-64.985h-86.646v124.062h-39.385zM512 215.631c137.846 0 248.123 110.277 248.123 248.123s-110.277 248.123-248.123 248.123-248.123-110.277-248.123-248.123 110.277-248.123 248.123-248.123zM1024 448c0 283.569-228.431 512-512 512s-512-228.431-512-512 228.431-512 512-512c-173.292 173.292-338.708 326.892-338.708 517.908 0 187.077 151.631 338.708 338.708 338.708s338.708-151.631 338.708-338.708c0-189.046-163.446-342.646-338.708-517.908 283.569 0 512 228.431 512 512z" />
<glyph unicode="&#xe60e;" glyph-name="mhplus-w-email" d="M821.169 217.6h-618.338v378.092l309.169-256 309.169 256v-378.092zM821.169 678.4l-309.169-256-309.169 256h618.338zM1024 448c0 283.569-228.431 512-512 512s-512-228.431-512-512 228.431-512 512-512 512 228.431 512 512z" />
<glyph unicode="&#xe60f;" glyph-name="mhplus-mobil-close" horiz-adv-x="1010" d="M3.471 800.325l138.847 138.847 864.325-846.969-142.319-152.732zM867.797 953.058l135.376-138.847-853.912-857.383-149.261 145.79z" />
<glyph unicode="&#xe610;" glyph-name="mhplus-mobil-menue" horiz-adv-x="1322" d="M0 960h217.872v-217.872h-217.872v217.872zM0 560.567h217.872v-217.872h-217.872v217.872zM0 153.872h217.872v-217.872h-217.872v217.872zM326.809 960h994.95v-217.872h-994.95v217.872zM326.809 560.567h994.95v-217.872h-994.95v217.872zM326.809 153.872h994.95v-217.872h-994.95v217.872z" />
<glyph unicode="&#xe611;" glyph-name="mhplus-app" d="M474.585 199.877c0-1.969 0-5.908 0-7.877s0-1.969 0-3.938c1.969-19.692 17.723-35.446 39.385-35.446s37.415 15.754 39.385 35.446c0 1.969 0 1.969 0 3.938s0 5.908 0 7.877c-3.938 17.723-19.692 31.508-37.415 31.508s-39.385-13.785-41.354-31.508zM372.185 272.738h279.631v401.723h-279.631v-401.723zM708.923 190.031c0-19.692-5.908-35.446-17.723-47.262 0 0 0 0 0 0s-1.969-1.969-1.969-1.969c0 0 0 0-1.969-1.969 0 0 0 0-1.969 0-39.385-35.446-120.123-37.415-173.292-37.415v0 0 0 0c-55.138 0-135.877 3.938-173.292 37.415 0 0 0 0-1.969 0 0 0 0 0-1.969 1.969 0 0-1.969 1.969-1.969 1.969s0 0 0 0c-11.815 11.815-17.723 27.569-17.723 47.262v259.938c0 0 0 0 0 0 0 137.846 0 277.662 0 277.662 0 21.662 17.723 39.385 39.385 39.385h315.077c21.662 0 39.385-17.723 39.385-39.385 0 0 0-139.815 0-277.662 0 0 0 0 0 0v-259.938zM1024 448c0 283.569-228.431 512-512 512s-512-228.431-512-512 228.431-512 512-512 512 228.431 512 512z" />
<glyph unicode="&#xe612;" glyph-name="mhplus-quadrat" d="M0 960h1024v-1024h-1024v1024z" />
<glyph unicode="&#xe613;" glyph-name="mhplus-lupe-mobile" d="M315.077 436.185c0-108.308 88.615-196.923 196.923-196.923s196.923 88.615 196.923 196.923-88.615 196.923-196.923 196.923-196.923-86.646-196.923-196.923zM897.969 113.231c78.769 90.585 126.031 206.769 126.031 334.769 0 283.569-228.431 512-512 512s-512-228.431-512-512c0-283.569 228.431-512 512-512 120.123 0 230.4 41.354 317.046 110.277l-159.508 159.508c-45.292-31.508-98.462-49.231-157.538-49.231-153.6 0-279.631 126.031-279.631 279.631s126.031 279.631 279.631 279.631 279.631-126.031 279.631-279.631c0-61.046-19.692-118.154-53.169-163.446l159.508-159.508z" />
<glyph unicode="&#xe800;" glyph-name="mhplus-download" horiz-adv-x="1096" d="M97.605 674.033l452.067-501.726 443.505 506.863h-188.361l1.712 273.98h-515.425l6.849-275.692zM0 336.696h136.99v-222.609h821.94v222.609h136.99v-393.846l-1089.070-6.849z" />
</font>
</defs>
</svg>
