<?xml version="1.0" encoding="utf-8"?>
<svg version="1.1" id="Ebene_1" xmlns="http://www.w3.org/2000/svg" xmlns:xlink="http://www.w3.org/1999/xlink" x="0px" y="0px"
	 viewBox="0 0 839.9 248.4" style="enable-background:new 0 0 839.9 248.4;" xml:space="preserve">
<style type="text/css">
	.st0{fill:#FFFFFF;}
	.st1{fill-rule:evenodd;clip-rule:evenodd;fill:#97CDE8;}
	.st2{fill:#97CDE8;}
</style>
<path class="st0" d="M0,51.7v147.1h42.6v-77.9C42.6,105,41.7,83,64,83c22,0,19.1,22.6,19.1,37.9v77.9h42.6v-77.9
	c0-7.8-0.3-19.4,2.9-26.4c3.2-7,11-11.3,18.5-11.3c9,0,15.9,2.6,18.2,11.9c1.4,5.5,0.9,20,0.9,25.8v77.9h42.6V107
	c0-14.8,2-31.6-7.8-43.2c-8.7-10.4-22.9-15.1-35.9-15.1c-18.2,0-35.3,8.1-42.9,25.5c-8.7-17.4-20.9-25.5-40.3-25.5
	c-19.1,0-33.3,8.1-40.8,25.5h-0.6V51.7H0L0,51.7z"/>
<path class="st0" d="M350,105.3c0-14.2,0.9-29-8.1-40.5c-8.7-11.3-23.2-15.9-36.8-15.9c-15.9,0-32.7,8.4-38.2,23.2h-0.6V0.2h-42.6
	v198.7h42.6v-79.4c0-8.7,0-18,3.8-25.8c3.5-7.2,12.5-11,20.3-11c18.5,0,17.1,24,17.1,36.8v79.4H350V105.3L350,105.3z"/>
<path class="st1" d="M408.4,116.3c0-8.7,0-17.7,4.3-25.5c3.8-7.2,10.7-11.9,19.1-11.9c21.4,0,22.6,30.4,22.6,45.5
	c0,15.1-0.9,47.2-22.9,47.2c-7.5,0-15.1-4.6-19.1-11c-4.9-8.1-4.1-20.6-4.1-29.8V116.3L408.4,116.3z M365.8,51.7v196.7h42.6v-65.7
	h0.6c6.1,13,19.4,19.1,33.9,19.1c42.9,0,56.2-40,56.2-76.2c0-18-1.7-35.6-11-51.3c-9.8-16.8-23.8-25.5-43.4-25.5
	c-18.8,0-30.4,8.4-38.2,24.6h-0.6V51.7H365.8L365.8,51.7z"/>
<polygon class="st2" points="511.9,198.9 554.5,198.9 554.5,0.2 511.9,0.2 511.9,198.9 "/>
<path class="st2" d="M696.9,198.9V51.7h-42.6v79.1c0,7.5,0.6,15.9-2.3,22.6c-3.8,8.7-11.9,14.2-21.4,14.2
	c-15.1,0-16.2-11.3-16.2-23.2V51.7h-42.6v92.7c0,14.2-0.9,28.1,7.2,40.8c8.4,13.3,21.1,16.5,35.9,16.5c20,0,35-9.6,42-28.1h0.6v25.2
	H696.9L696.9,198.9z"/>
<path class="st2" d="M833.8,87.3c-10.1-27.5-29-38.5-57.9-38.5c-31.3,0-62.8,13-62.8,49.2c0,18.5,11.6,33.6,29,39.7
	c9.3,3.2,33.6,7.5,43.7,8.7c7.8,0.9,16.5,2.6,16.5,12.5c0,11-17.7,13.9-25.8,13.9c-13.6,0-29.5-4.6-32.4-19.7l-36.8,5.2
	c7.8,33,36.5,43.4,67.2,43.4c16.2,0,32.4-2.9,45.8-12.2c12.5-9,19.7-22.6,19.7-37.9c0-66.3-88.3-35-88.3-62.6c0-10.7,13.3-13,22-13
	c13.9,0,24.9,5.8,28.7,19.7L833.8,87.3L833.8,87.3z"/>
<g>
	<path class="st0" d="M519.9,222.6l10.8-16.2h7.7l-8.3,12.3l10.3,22.1h-8.9l-6.8-14.9l-4.9,7v7.9h-7.8v-34.3h7.8V222.6z"/>
	<path class="st0" d="M550,215.3v4.8h0.1c0.8-2.7,2.3-5.5,5.5-5.3l1.3,0.1v7.4c-5.6-0.3-6.3,4.3-6.3,8.8v9.7h-7.4v-25.4H550z"/>
	<path class="st0" d="M575.6,240.7c-0.3-1.3-0.4-2.7-0.3-4c-2.1,3-4.3,4.5-8.1,4.5c-4.5,0-8-2.4-8-7.2c0-3.8,2.4-6.3,5.7-7.6
		c2.9-1.1,7-1.3,10.1-1.6v-0.6c0-1.1,0.1-2.4-0.7-3.3c-0.6-0.9-1.9-1.2-3-1.2c-2.3,0-4.4,1.2-4.4,3.7l-7-0.7c0.8-6.2,6.8-8,12.1-8
		c2.6,0,6,0.6,8.1,2.3c2.6,2.1,2.4,4.9,2.4,8v11.9c0,1.3,0.1,2.5,0.5,3.8H575.6z M574.9,228.6c-2.8,0.3-8,0.9-8,4.7
		c0,2,1.2,3.3,3.3,3.3c1.5,0,2.9-0.8,3.7-2.1c1-1.6,1-3.1,1-4.9V228.6z"/>
	<path class="st0" d="M594.5,215.3v4.3h0.1c1.5-3.3,3.6-4.8,7.3-4.8c2.4,0,4.8,0.8,6.3,2.8c1.4,1.9,1.4,5.1,1.4,7.4v15.7h-7.4v-13.7
		c0-2.6,0.3-6.4-3.4-6.4c-1.3,0-2.5,0.8-3.1,1.9c-0.8,1.5-0.8,2.9-0.8,4.5v13.7h-7.4v-25.4H594.5z"/>
	<path class="st0" d="M639.5,240.7h-8.3l-5.4-11.5l-4.1,5v6.5h-7.4v-34.3h7.4V227l2.4-3.3l7.1-8.3h7.3l-7.3,8.7L639.5,240.7z"/>
	<path class="st0" d="M648.3,229.3l0,1.3c0,3,1.7,5.5,4.9,5.5c2.3,0,4.5-1.7,4.5-4l6.8,0.5c0,1.3-3,8.8-11.6,8.8
		c-7.6,0-12.6-5.3-12.6-12.9c0-7.5,4.5-13.6,12.4-13.6c3.6,0,7.2,1.6,9.3,4.5c2.1,2.9,2.7,6.5,2.6,10H648.3z M657.2,224.9
		c-0.2-2.8-1.1-5.3-4.3-5.3c-3.3,0-4.5,2.4-4.8,5.3H657.2z"/>
	<path class="st0" d="M675.9,215.3v4.3h0.1c1.5-3.3,3.6-4.8,7.3-4.8c2.4,0,4.8,0.8,6.3,2.8c1.4,1.9,1.4,5.1,1.4,7.4v15.7h-7.4v-13.7
		c0-2.6,0.3-6.4-3.4-6.4c-1.3,0-2.5,0.8-3.1,1.9c-0.8,1.5-0.8,2.9-0.8,4.5v13.7H669v-25.4H675.9z"/>
	<path class="st0" d="M721,240.7h-8.3l-5.4-11.5l-4.1,5v6.5h-7.4v-34.3h7.4V227l2.4-3.3l7.1-8.3h7.3l-7.3,8.7L721,240.7z"/>
	<path class="st0" d="M739,240.7c-0.3-1.3-0.4-2.7-0.3-4c-2.1,3-4.3,4.5-8.1,4.5c-4.5,0-8-2.4-8-7.2c0-3.8,2.4-6.3,5.7-7.6
		c2.9-1.1,7-1.3,10.1-1.6v-0.6c0-1.1,0.1-2.4-0.7-3.3c-0.6-0.9-1.9-1.2-3-1.2c-2.3,0-4.4,1.2-4.4,3.7l-7-0.7c0.8-6.2,6.8-8,12.1-8
		c2.6,0,6,0.6,8.1,2.3c2.6,2.1,2.4,4.9,2.4,8v11.9c0,1.3,0.1,2.5,0.5,3.8H739z M738.3,228.6c-2.8,0.3-8,0.9-8,4.7
		c0,2,1.2,3.3,3.3,3.3c1.5,0,2.9-0.8,3.7-2.1c1-1.6,1-3.1,1-4.9V228.6z"/>
	<path class="st0" d="M765.3,222.9c-0.7-2.4-2.6-3.4-5-3.4c-1.5,0-3.8,0.4-3.8,2.3c0,4.8,15.3-0.7,15.3,10.8c0,2.7-1.3,5-3.4,6.6
		c-2.3,1.6-5.1,2.1-7.9,2.1c-5.3,0-10.3-1.8-11.6-7.5l6.4-0.9c0.5,2.6,3.3,3.4,5.6,3.4c1.4,0,4.5-0.5,4.5-2.4c0-1.7-1.5-2-2.9-2.2
		c-1.8-0.2-6-1-7.6-1.5c-3-1-5-3.7-5-6.9c0-6.3,5.5-8.5,10.9-8.5c5,0,8.3,1.9,10,6.7L765.3,222.9z"/>
	<path class="st0" d="M790.7,222.9c-0.7-2.4-2.6-3.4-5-3.4c-1.5,0-3.8,0.4-3.8,2.3c0,4.8,15.3-0.7,15.3,10.8c0,2.7-1.3,5-3.4,6.6
		c-2.3,1.6-5.1,2.1-7.9,2.1c-5.3,0-10.3-1.8-11.6-7.5l6.4-0.9c0.5,2.6,3.3,3.4,5.6,3.4c1.4,0,4.5-0.5,4.5-2.4c0-1.7-1.5-2-2.9-2.2
		c-1.8-0.2-6-1-7.6-1.5c-3-1-5-3.7-5-6.9c0-6.3,5.5-8.5,10.9-8.5c5,0,8.3,1.9,10,6.7L790.7,222.9z"/>
	<path class="st0" d="M807.9,229.3l0,1.3c0,3,1.7,5.5,4.9,5.5c2.3,0,4.5-1.7,4.5-4l6.8,0.5c0,1.3-3,8.8-11.6,8.8
		c-7.6,0-12.6-5.3-12.6-12.9c0-7.5,4.5-13.6,12.4-13.6c3.6,0,7.2,1.6,9.3,4.5c2.1,2.9,2.7,6.5,2.6,10H807.9z M816.9,224.9
		c-0.2-2.8-1.1-5.3-4.3-5.3c-3.3,0-4.5,2.4-4.8,5.3H816.9z"/>
	<path class="st0" d="M827.7,240.7V233h7.9v7.8H827.7z"/>
</g>
</svg>
